# xmcd CD database file
#
# Track frame offsets:
#	150
#	19416
#	37132
#	54261
#	67659
#	85685
#	102050
#	123572
#	142000
#	155319
#	179838
#	203480
#
# Disc length: 4440 seconds
#
# Revision: 1
# Processed by: cddbd v1.5.2PL0 Copyright (c) Steve Scherf et al.
# Submitted via: CDex 1.51
#
DISCID=9e11560c
DTITLE=22-20s - 22-20s
DYEAR=2004
DGENRE=Rock
TTITLE0=Devil In Me
TTITLE1=Such A Fool
TTITLE2=Baby Brings Bad News
TTITLE3=22 Days
TTITLE4=Friends
TTITLE5=Why Don't You Do It For Me?
TTITLE6=Shoot Your Gun
TTITLE7=The Things That Lovers Do
TTITLE8=I'm The One
TTITLE9=Hold On
TTITLE10=Baby You're Not In Love
TTITLE11=Data Track
EXTD=YEAR: 2004
EXTT0=
EXTT1=
EXTT2=
EXTT3=
EXTT4=
EXTT5=
EXTT6=
EXTT7=
EXTT8=
EXTT9=
EXTT10=
EXTT11=
PLAYORDER=
